<svg xmlns="http://www.w3.org/2000/svg" version="1.1" xmlns:xlink="http://www.w3.org/1999/xlink" width="40" height="40" x="0" y="0" viewBox="0 0 512 512" style="enable-background:new 0 0 512 512" xml:space="preserve" class=""><g><path fill="#ffffff" d="M287.61 11.17H41.51a33.3 33.3 0 0 0-33.3 33.3V246a33.3 33.3 0 0 0 33.3 33.3h95.59l41.79 54.12L192 279.31h95.63a33.3 33.3 0 0 0 33.3-33.3V44.47a33.3 33.3 0 0 0-33.32-33.3z" opacity="0" data-original="#ffffff"></path><path fill="#f6bab6" d="M178.89 341.63a8.21 8.21 0 0 1-6.5-3.19l-39.32-50.92H41.51A41.56 41.56 0 0 1 0 246V44.47A41.56 41.56 0 0 1 41.51 3h246.1a41.56 41.56 0 0 1 41.51 41.51V246a41.56 41.56 0 0 1-41.51 41.51h-89.17l-11.58 47.84a8.21 8.21 0 0 1-8 6.28zM41.51 19.38a25.12 25.12 0 0 0-25.09 25.09V246a25.12 25.12 0 0 0 25.09 25.1h95.59a8.21 8.21 0 0 1 6.5 3.19l31.33 40.58 9.07-37.49a8.21 8.21 0 0 1 8-6.28h95.63a25.12 25.12 0 0 0 25.08-25.1V44.47a25.12 25.12 0 0 0-25.09-25.09z" opacity="1" data-original="#5e1235" class=""></path><path fill="#ffd150" d="M476.55 302.77c0-63.87-51.78-174.47-115.65-174.47S245.25 238.89 245.25 302.77 297 359.6 360.9 359.6s115.65 7.04 115.65-56.83z" opacity="0" data-original="#ffd150" class=""></path><path fill="#f6bab6" d="M394 368c-5.15 0-10.43-.05-15.82-.11-11.23-.12-23.33-.12-34.56 0-38.33.4-71.42.74-90.7-18.33C242.24 339 237 323.7 237 302.77c0-33.87 13.74-79.14 35-115.35 25.5-43.42 57.06-67.34 88.86-67.34s63.35 23.91 88.86 67.34c21.26 36.2 35 81.48 35 115.35 0 20.93-5.2 36.25-15.89 46.83C452.31 366 425.53 368 394 368zm-33.1-231.49c-25.36 0-52.59 21.59-74.7 59.23-19.89 33.87-32.74 75.88-32.74 107 0 16.32 3.6 27.82 11 35.16 14.4 14.26 44.32 13.94 79 13.59 5.66-.06 11.51-.12 17.45-.12s11.79.06 17.45.12c34.65.36 64.57.67 79-13.59 7.41-7.34 11-18.84 11-35.16 0-31.15-12.85-73.16-32.74-107-22.13-37.64-49.36-59.23-74.72-59.23z" opacity="1" data-original="#5e1235" class=""></path><path fill="#ffffff" d="M363.69 380.39c42.41 0 55.27-28.95 59.17-46.92l-2.33-.27a20.18 20.18 0 0 1-17.66-17.28 133.84 133.84 0 0 1-1.07-23.11l-79.43-1.92a104 104 0 0 1 .08 24 21.27 21.27 0 0 1-18.83 18.76c4.73 18.47 18.71 46.74 60.07 46.74z" opacity="0" data-original="#ffffff"></path><path fill="#f6bab6" d="M363.69 388.6c-20.55 0-37.25-6.35-49.62-18.89-8.57-8.68-14.94-20.46-18.41-34.06a8.21 8.21 0 0 1 7.06-10.19 13 13 0 0 0 11.56-11.51 95.64 95.64 0 0 0 0-21.87 8.21 8.21 0 0 1 8.32-9.4l79.4 1.92a8.21 8.21 0 0 1 8 8.68 126.9 126.9 0 0 0 1 21.52 12 12 0 0 0 10.48 10.2l2.33.27a8.21 8.21 0 0 1 7.07 9.9c-7.36 33.97-31.88 53.43-67.19 53.43zm-49.75-49.46c6.19 16.47 19.85 33 49.75 33 30.1 0 43.29-16.25 48.94-32.54a28.38 28.38 0 0 1-17.89-22.6 141 141 0 0 1-1.23-16.22l-62.27-1.5a116 116 0 0 1-.63 16.46 29.28 29.28 0 0 1-16.67 23.4z" opacity="1" data-original="#5e1235" class=""></path><path fill="#ffffff" d="M298.3 227.08s-6.09-18.55-6.09-33.66c0-38.18 29.85-60.4 68.33-60.4s68.33 22.21 68.33 60.4c0 7.29-2 34.41-2 34.41" opacity="0" data-original="#ffffff"></path><path fill="#f6bab6" d="M426.9 236h-.61a8.21 8.21 0 0 1-7.59-8.79c.55-7.46 2-28.08 2-33.81 0-31.7-23.6-52.18-60.12-52.18s-60.12 20.48-60.12 52.18c0 13.58 5.62 30.93 5.68 31.1a8.21 8.21 0 0 1-15.6 5.12c-.27-.81-6.5-20-6.5-36.22 0-20.76 7.84-38.33 22.66-50.8 13.65-11.48 32.78-17.81 53.88-17.81s40.24 6.32 53.88 17.81c14.82 12.47 22.66 30 22.66 50.8 0 7.51-1.93 33.9-2 35a8.21 8.21 0 0 1-8.22 7.6z" opacity="1" data-original="#5e1235" class=""></path><path fill="#ffffff" d="M435.49 232.68c-1-3.11-4.53-6.07-7.32-5.11l-.45.87-37.81-57.08L297 222.6s-5.55 5-7.87 10.08c-1.37 3 2.71 13.52 3.57 16.7 1.79 6.67 4.83 9.77 6.33 10.66s4.63 2 6 .9c0 0 .36.25 3.8 9.72 5.81 16 19.66 25.48 32.93 36.28 3.9 3.18 7.84 6.38 12.34 8.66 6.16 3.14 11.26 3.14 17.43 0 4.49-2.29 8.43-5.49 12.34-8.66 13.27-10.8 27.12-20.26 32.93-36.28 2.17-6 3.33-6.77 4.25-9.28a9.52 9.52 0 0 0 4.58-1.34c1.5-.9 4.53-4 6.33-10.66.82-3.18 4.57-13.6 3.53-16.7z" opacity="0" data-original="#ffffff"></path><path fill="#f6bab6" d="M362.79 326.16a27.16 27.16 0 0 1-12.44-3.24c-5.29-2.69-9.8-6.37-13.79-9.61-1.59-1.3-3.2-2.57-4.79-3.85-12.18-9.71-24.78-19.75-30.67-36-.65-1.8-1.19-3.24-1.62-4.39a18.45 18.45 0 0 1-4.72-2c-2.09-1.26-7.27-5.3-10-15.57-.13-.48-.47-1.54-.8-2.56-2.76-8.47-4.54-14.84-2.29-19.71 2.94-6.38 9.11-12.09 9.81-12.72a8.19 8.19 0 0 1 1.56-1.11l92.94-51.24a8.21 8.21 0 0 1 10.81 2.66l34.82 52.57a13.42 13.42 0 0 1 3.45 1.16 17 17 0 0 1 8.25 9.51c1.42 4.24.27 9.5-2.69 19-.31 1-.58 1.86-.74 2.44-2.76 10.27-7.93 14.31-10 15.57a18.2 18.2 0 0 1-3.22 1.5 34.13 34.13 0 0 0-2.12 4.88c-5.89 16.25-18.49 26.29-30.67 36-1.59 1.27-3.2 2.55-4.79 3.84-4 3.24-8.5 6.92-13.79 9.61a27.16 27.16 0 0 1-12.5 3.26zM305 252.73a8.2 8.2 0 0 1 4.64 1.44c2.37 1.62 2.82 2.52 6.87 13.7 4.31 11.89 14.12 19.71 25.47 28.76 1.64 1.31 3.28 2.62 4.92 3.95 3.68 3 7.15 5.82 10.88 7.72s6.15 1.95 10 0 7.2-4.73 10.88-7.72c1.64-1.33 3.28-2.64 4.92-3.95 11.35-9.05 21.16-16.87 25.47-28.76a49.14 49.14 0 0 1 3.54-7.87 10.48 10.48 0 0 0 .72-1.44 8.21 8.21 0 0 1 7.63-5.39l.28-.1c.41-.43 1.77-2.05 2.78-5.82.19-.73.52-1.79.92-3.05.49-1.59 1.56-5 2.15-7.58a8.21 8.21 0 0 1-6.18-3.65l-33.65-50.77-85.39 47.08a32.77 32.77 0 0 0-4.76 5.82 74.19 74.19 0 0 0 2.45 8.77c.45 1.38.81 2.48 1 3.38a14.17 14.17 0 0 0 2.65 5.68 8.22 8.22 0 0 1 1.81-.2z" opacity="1" data-original="#5e1235" class=""></path><path fill="#ffd150" d="M389.82 171.26s25.89 54.63 37.29 57.26A269.82 269.82 0 0 0 430.3 199c0-50.42-35.14-71.06-69.95-71-43.69.11-68.84 28.87-68.84 71.15 0 6.07 3.17 21.15 5 28.33 8.65-5.11 24.55-11.88 52.53-27.84a272 272 0 0 0 40.78-28.38z" opacity="0" data-original="#ffd150" class=""></path><path fill="#f6bab6" d="M427.12 236.73a8.18 8.18 0 0 1-1.85-.21c-5.53-1.28-12.78-6.23-28.23-33.58-3.89-6.89-7.41-13.64-10-18.81a294.59 294.59 0 0 1-33.94 22.69c-17.35 9.9-30.06 16.28-39.35 20.94-5.57 2.8-10 5-13.08 6.84a8.21 8.21 0 0 1-12.14-5.07c-1.35-5.39-5.22-22.53-5.22-30.33 0-48.09 30.24-79.25 77-79.36h.25c22.44 0 42.51 7.69 56.52 21.67s21.41 33.86 21.41 57.51c0 5.66-2.1 25.19-3.35 31.19a8.21 8.21 0 0 1-8 6.53zm-66.54-100.45h-.2c-38 .1-60.65 23.63-60.65 62.94 0 3 1.1 9.57 2.41 16l4.24-2.13c9.12-4.58 21.61-10.85 38.57-20.53a266.81 266.81 0 0 0 39.45-27.46 8.21 8.21 0 0 1 12.84 2.65c7.35 15.51 16.78 32.66 23.92 43.2.53-5.2.93-10 .93-11.93 0-19.47-5.58-34.91-16.59-45.89s-26.86-16.88-44.93-16.88z" opacity="1" data-original="#5e1235" class=""></path><path fill="#60efeb" d="M503.79 500.83V396.72a52.89 52.89 0 0 0-52.89-52.89l-28-10.36c-3.9 18-16.76 46.92-59.17 46.92-41.36 0-55.34-28.26-60.07-46.77l-28.75 10.22A52.89 52.89 0 0 0 222 396.72v104.11" opacity="0" data-original="#60efeb" class=""></path><g fill="#5e1235"><path d="M503.79 509a8.21 8.21 0 0 1-8.21-8.21V396.72A44.73 44.73 0 0 0 450.9 352a8.21 8.21 0 0 1-2.85-.51l-19.66-7.27c-9.51 28.31-32.64 44.33-64.71 44.33-20.55 0-37.25-6.35-49.62-18.89a71 71 0 0 1-15.75-25.49l-20.7 7.36a8.21 8.21 0 0 1-2.75.47 44.73 44.73 0 0 0-44.68 44.68v104.15a8.21 8.21 0 0 1-16.42 0V396.72a61.17 61.17 0 0 1 59.63-61.08l27.47-9.76a8.21 8.21 0 0 1 10.7 5.71c4.73 18.52 17.6 40.59 52.11 40.59 35 0 47.14-22 51.15-40.45a8.21 8.21 0 0 1 10.87-6l26.72 9.87A61.17 61.17 0 0 1 512 396.72v104.11a8.21 8.21 0 0 1-8.21 8.17z" fill="#f6bab6" opacity="1" data-original="#5e1235" class=""></path><path d="M278 490.68a8.21 8.21 0 0 1-8.21-8.21v-43.82a8.21 8.21 0 1 1 16.42 0v43.82a8.21 8.21 0 0 1-8.21 8.21zM447.84 490.68a8.21 8.21 0 0 1-8.21-8.21v-43.82a8.21 8.21 0 1 1 16.42 0v43.82a8.21 8.21 0 0 1-8.21 8.21z" fill="#f6bab6" opacity="1" data-original="#5e1235" class=""></path></g><path fill="#d6367f" d="M407 417.27c12.75-5.68 25.57-16 34.73-34.32" opacity="0" data-original="#d6367f" class=""></path><path fill="#ffffff" d="M407 425.48a8.21 8.21 0 0 1-3.34-15.71c13.22-5.89 23.56-16.15 30.73-30.49a8.21 8.21 0 1 1 14.69 7.34c-8.92 17.84-22 30.67-38.74 38.15a8.18 8.18 0 0 1-3.34.71z" opacity="0" data-original="#ffffff"></path><path fill="#ff808c" d="M162.28 228.58s18.08-43.24 17.72-52.45-8.86-12.64-7.8-23.75c2.27-23.7 22.68-22.68 16.3-46.9s-40-22.68-40-22.68l-6.51-.06s-33.67-1.54-40 22.68 14 23.2 16.3 46.9c1.06 11.1-7.44 14.53-7.8 23.75s17.72 52.45 17.72 52.45" opacity="0" data-original="#ff808c" class=""></path><path fill="#f6bab6" d="M162.27 236.79a8.21 8.21 0 0 1-7.57-11.38c8.21-19.64 17.08-44 17.09-49-.07-1.89-1-3.41-2.63-6.17-2.52-4.14-6-9.82-5.14-18.64 1.25-13.09 7.07-20.17 11.74-25.86 4.83-5.88 7.25-8.83 4.8-18.16C175.93 90 149.1 91 148.83 91h-.45l-6.51-.06h-.3c-.25 0-27.14-.88-31.74 16.57-2.46 9.33 0 12.28 4.8 18.16 4.67 5.69 10.49 12.77 11.74 25.86.85 8.82-2.61 14.5-5.14 18.64-1.68 2.75-2.55 4.28-2.63 6.2 0 5 8.88 29.33 17.09 49a8.21 8.21 0 1 1-15.15 6.33c-5.64-13.5-18.73-46-18.35-55.94.24-6.28 2.89-10.63 5-14.12s3.12-5.29 2.81-8.53c-.78-8.11-4.16-12.23-8.08-17-5.6-6.83-12.58-15.32-8-32.77 7.79-29.58 44.92-28.92 48.19-28.8l6.2.06c3.76-.13 40.37-.54 48.1 28.8 4.6 17.45-2.38 25.94-8 32.77-3.92 4.78-7.31 8.9-8.09 17-.31 3.24.7 5.05 2.81 8.53s4.77 7.83 5 14.12c.38 10-12.7 42.43-18.35 55.94a8.21 8.21 0 0 1-7.51 5.03z" opacity="1" data-original="#5e1235" class=""></path><path fill="#f6bab6" d="M44.79 134.6a8.26 8.26 0 0 1-1.39-.12c-13.45-2.29-23.62-10.48-27.9-22.41-3.75-10.45-2.1-21.91 4.19-29.17 5.15-6 12.83-8.41 21.05-6.73 22.55 4.57 61.26 13.69 61.68 13.78a8.21 8.21 0 1 1-3.76 16c-.39-.09-38.89-9.15-61.19-13.68-3.14-.64-4.52.41-5.37 1.39-2.03 2.34-3.1 7.5-1.1 12.87 1.31 3.65 5 10 15.2 11.76a8.21 8.21 0 0 1-1.37 16.3z" opacity="1" data-original="#5e1235" class=""></path><ellipse cx="54.42" cy="131.78" fill="#ff808c" rx="14.35" ry="16.65" transform="rotate(-79.69 54.425 131.761)" opacity="0" data-original="#ff808c" class=""></ellipse><path fill="#f6bab6" d="M55.32 154.43a27.55 27.55 0 0 1-4.94-.45C36.9 151.53 27.74 139.57 30 127.33s15-20.21 28.49-17.75S81.1 124 78.87 136.23a21.72 21.72 0 0 1-10.53 14.72 25.67 25.67 0 0 1-13.02 3.48zm-1.77-28.87c-3.72 0-6.92 1.92-7.43 4.71-.6 3.28 2.7 6.74 7.2 7.55a9.91 9.91 0 0 0 6.7-1 5.39 5.39 0 0 0 2.7-3.51c.6-3.28-2.7-6.74-7.2-7.56a11 11 0 0 0-1.97-.19zM244.91 134.6a8.21 8.21 0 0 1-1.37-16.3c10.18-1.74 13.89-8.11 15.2-11.76 1.92-5.37.88-10.55-1.15-12.89-.85-1-2.23-2-5.37-1.39-22.32 4.53-64.34 14.16-64.76 14.26a8.21 8.21 0 0 1-3.67-16c.42-.1 42.64-9.77 65.16-14.34 8.23-1.67 15.9.78 21.05 6.73 6.29 7.27 7.93 18.72 4.19 29.17-4.28 11.95-14.45 20.11-27.9 22.41a8.25 8.25 0 0 1-1.38.11z" opacity="1" data-original="#5e1235" class=""></path><ellipse cx="234.89" cy="131.78" fill="#ff808c" rx="16.65" ry="14.35" transform="rotate(-10.26 235 131.564)" opacity="0" data-original="#ff808c" class=""></ellipse><path fill="#f6bab6" d="M234 154.42c-11.56 0-21.65-7.45-23.6-18.19-2.23-12.24 6.93-24.2 20.42-26.65s26.27 5.51 28.49 17.75-6.93 24.2-20.42 26.65a27.32 27.32 0 0 1-4.89.44zm-7.45-21.13c.6 3.28 4.9 5.35 9.4 4.53s7.8-4.28 7.2-7.56-4.91-5.35-9.4-4.53-7.8 4.28-7.2 7.56z" opacity="1" data-original="#5e1235" class=""></path></g></svg>