<svg xmlns="http://www.w3.org/2000/svg" version="1.1" xmlns:xlink="http://www.w3.org/1999/xlink" width="40" height="40" x="0" y="0" viewBox="0 0 64 64" style="enable-background:new 0 0 512 512" xml:space="preserve" class=""><g><path fill="#e7e6ff" d="M15.48 23.75c0 2.65-2.15 4.8-4.8 4.8s-4.81-2.15-4.81-4.8 2.15-4.81 4.81-4.81 4.8 2.15 4.8 4.81z" opacity="0" data-original="#e7e6ff" class=""></path><path fill="#abacf4" d="M15.24 24.71c0 2.12-2.043 3.84-4.56 3.84s-4.57-1.72-4.57-3.84 2.043-3.848 4.57-3.848 4.56 1.72 4.56 3.848z" opacity="0" data-original="#abacf4" class=""></path><path fill="#c2c1fa" d="M15.48 23.748c0 1.59-2.15 2.88-4.8 2.88s-4.81-1.29-4.81-2.88 2.15-2.886 4.81-2.886 4.8 1.29 4.8 2.886z" opacity="0" data-original="#c2c1fa" class=""></path><path fill="#f6bab6" d="M10.68 29.55c-3.204 0-5.81-2.602-5.81-5.8s2.606-5.81 5.81-5.81 5.8 2.606 5.8 5.81-2.602 5.8-5.8 5.8zm0-9.609c-2.101 0-3.81 1.709-3.81 3.81a3.806 3.806 0 0 0 7.61 0c0-2.096-1.705-3.81-3.8-3.81z" opacity="1" data-original="#757677" class=""></path><path fill="#020202" d="M4.85 43.65a1 1 0 0 1-1-1v-7.86a1 1 0 1 1 2 0v7.86a1 1 0 0 1-1 1zM16.72 43.65a1 1 0 0 1-1-1v-7.86a1 1 0 1 1 2 0v7.86a1 1 0 0 1-1 1z" opacity="0" data-original="#020202" class=""></path><path fill="#e6efff" d="M20.51 33.96v8.59c0 .99-.72 1.89-1.7 1.99-1.14.11-2.09-.77-2.09-1.89V61c0 .99-.71 1.89-1.7 1.99-1.13.11-2.09-.77-2.09-1.88V50.23c0-1.19-.96-2.15-2.15-2.15-.59 0-1.12.24-1.52.63-.38.38-.62.93-.62 1.52V61c0 .99-.71 1.89-1.71 1.99-1.13.11-2.08-.77-2.08-1.88V42.65c0 1.05-.85 1.9-1.89 1.9s-1.89-.85-1.89-1.9v-8.69c0-2.09 1.69-3.78 3.78-3.78 4.17 2.66 8.13 2.66 11.87 0h.01c2.09 0 3.78 1.69 3.78 3.78z" opacity="0" data-original="#e6efff" class=""></path><path fill="#9bc1f4" d="M20.51 35.412v8.16c0 .94-.72 1.796-1.7 1.89-1.14.105-2.09-.731-2.09-1.795v17.432c0 .94-.71 1.796-1.7 1.89-1.13.104-2.09-.731-2.09-1.786V50.867c0-1.131-.96-2.042-2.15-2.042-.59 0-1.12.228-1.52.599-.38.361-.62.883-.62 1.444V61.1c0 .94-.71 1.796-1.71 1.89-1.13.104-2.08-.731-2.08-1.786V43.667c0 .997-.85 1.805-1.89 1.805s-1.89-.807-1.89-1.805v-8.256c0-1.986 1.69-3.591 3.78-3.591 4.17 2.527 8.13 2.527 11.87 0h.01c2.09 0 3.78 1.606 3.78 3.591z" opacity="0" data-original="#9bc1f4" class=""></path><path fill="#c1d7fa" d="M20.51 35.223v7.731c0 .891-.72 1.701-1.7 1.791-1.14.099-2.09-.693-2.09-1.701v16.515c0 .891-.71 1.701-1.7 1.791-1.13.099-2.09-.693-2.09-1.692v-9.792c0-1.071-.96-1.935-2.15-1.935-.59 0-1.12.216-1.52.567-.38.342-.62.837-.62 1.368v9.693c0 .891-.71 1.701-1.71 1.791-1.13.099-2.08-.693-2.08-1.692V43.044c0 .945-.85 1.71-1.89 1.71s-1.89-.765-1.89-1.71v-7.821c0-1.881 1.69-3.402 3.78-3.402 4.17 2.394 8.13 2.394 11.87 0h.01c2.09 0 3.78 1.521 3.78 3.402z" opacity="0.050980392156862744" data-original="#c1d7fa" class=""></path><path fill="#f6bab6" d="M6.745 63.999a2.9 2.9 0 0 1-1.948-.748 2.894 2.894 0 0 1-.947-2.141V45.409c-.281.091-.58.141-.89.141a2.898 2.898 0 0 1-2.89-2.899v-8.69a4.785 4.785 0 0 1 4.78-4.779c.19 0 .377.055.538.157 3.828 2.439 7.346 2.451 10.753.027.169-.12.372-.185.58-.185a4.787 4.787 0 0 1 4.79 4.779v8.59c0 1.525-1.142 2.837-2.599 2.985a2.995 2.995 0 0 1-1.191-.128V61c0 1.527-1.142 2.839-2.6 2.985a2.94 2.94 0 0 1-2.242-.738 2.888 2.888 0 0 1-.948-2.137V50.23a1.15 1.15 0 0 0-1.15-1.15c-.386 0-.66.188-.823.347a1.164 1.164 0 0 0-.317.804v10.77c0 1.554-1.123 2.837-2.611 2.985-.095.009-.19.014-.284.014zM10.78 47.08a3.153 3.153 0 0 1 3.15 3.15v10.88c0 .252.104.485.292.655a.909.909 0 0 0 .701.229c.446-.045.797-.482.797-.995v-18.35a1 1 0 1 1 2 0 .891.891 0 0 0 .994.895c.437-.045.796-.491.796-.995v-8.59a2.783 2.783 0 0 0-2.498-2.765c-3.925 2.65-8.103 2.649-12.429-.002a2.784 2.784 0 0 0-2.514 2.767v8.69c0 .496.399.899.89.899s.89-.403.89-.899a1 1 0 1 1 2 0v18.46a.88.88 0 0 0 .291.659.893.893 0 0 0 .692.226c.504-.051.807-.546.807-.995v-10.77c0-.836.333-1.647.913-2.228a3.175 3.175 0 0 1 2.227-.923z" opacity="1" data-original="#757677" class=""></path><path fill="#e7e6ff" d="M35.43 32.31c0 2.08-1.68 3.76-3.75 3.76s-3.76-1.68-3.76-3.76 1.68-3.76 3.76-3.76h.08c2.03.04 3.67 1.72 3.67 3.76z" opacity="0" data-original="#e7e6ff" class=""></path><path fill="#abacf4" d="M35.242 33.062c0 1.664-1.596 3.008-3.562 3.008s-3.572-1.344-3.572-3.008 1.596-3.008 3.572-3.008h.076c1.929.032 3.487 1.376 3.487 3.008z" opacity="0" data-original="#abacf4" class=""></path><path fill="#c2c1fa" d="M35.43 32.31c0 1.248-1.68 2.256-3.75 2.256s-3.76-1.008-3.76-2.256 1.68-2.256 3.76-2.256h.08c2.03.024 3.67 1.032 3.67 2.256z" opacity="0" data-original="#c2c1fa" class=""></path><path fill="#f6bab6" d="M31.68 37.07c-2.625 0-4.76-2.135-4.76-4.76s2.135-4.761 4.76-4.761c2.664.051 4.75 2.187 4.75 4.761a4.76 4.76 0 0 1-4.75 4.76zm.06-7.521c-1.582 0-2.82 1.238-2.82 2.761s1.238 2.76 2.76 2.76 2.75-1.238 2.75-2.76c0-1.493-1.207-2.731-2.69-2.761z" opacity="1" data-original="#757677" class=""></path><path fill="#020202" d="M27.12 48.09a1 1 0 0 1-1-1v-6.14a1 1 0 1 1 2 0v6.14a1 1 0 0 1-1 1zM36.4 48.09a1 1 0 0 1-1-1v-6.14a1 1 0 1 1 2 0v6.14a1 1 0 0 1-1 1z" opacity="0" data-original="#020202" class=""></path><path fill="#e6efff" d="M39.36 40.3v6.71c0 .78-.56 1.48-1.33 1.56-.89.08-1.63-.61-1.63-1.48v14.34c0 .78-.56 1.48-1.33 1.56-.89.09-1.63-.6-1.63-1.47v-8.5c0-.94-.76-1.68-1.68-1.68a1.67 1.67 0 0 0-1.68 1.68v8.41c0 .78-.56 1.48-1.33 1.56-.88.09-1.63-.6-1.63-1.47V47.09c0 .82-.66 1.48-1.48 1.48-.81 0-1.48-.66-1.48-1.48V40.3c0-1.63 1.33-2.96 2.96-2.96 3.26 2.08 6.35 2.08 9.28 0h.01c1.63 0 2.95 1.33 2.95 2.96z" opacity="0" data-original="#e6efff" class=""></path><path fill="#9bc1f4" d="M39.36 41.435v6.375a1.49 1.49 0 0 1-1.33 1.482c-.89.076-1.63-.579-1.63-1.406v13.623a1.49 1.49 0 0 1-1.33 1.482c-.89.086-1.63-.57-1.63-1.396V53.52c0-.893-.76-1.596-1.68-1.596-.46 0-.88.171-1.19.465-.3.285-.49.684-.49 1.131v7.989a1.49 1.49 0 0 1-1.33 1.482c-.88.086-1.63-.57-1.63-1.396V47.887c0 .779-.66 1.406-1.48 1.406-.81 0-1.48-.627-1.48-1.406v-6.451c0-1.549 1.33-2.812 2.96-2.812 3.26 1.976 6.35 1.976 9.28 0h.01c1.63 0 2.95 1.263 2.95 2.812z" opacity="0" data-original="#9bc1f4" class=""></path><path fill="#c1d7fa" d="M39.36 41.287v6.039c0 .702-.56 1.332-1.33 1.404-.89.072-1.63-.549-1.63-1.332v12.906c0 .702-.56 1.332-1.33 1.404-.89.081-1.63-.54-1.63-1.323v-7.65c0-.846-.76-1.512-1.68-1.512-.46 0-.88.162-1.19.441-.3.27-.49.648-.49 1.071v7.569c0 .702-.56 1.332-1.33 1.404-.88.081-1.63-.54-1.63-1.323V47.398c0 .738-.66 1.332-1.48 1.332-.81 0-1.48-.594-1.48-1.332v-6.111c0-1.467 1.33-2.664 2.96-2.664 3.26 1.872 6.35 1.872 9.28 0h.01c1.63 0 2.95 1.197 2.95 2.664z" opacity="0.050980392156862744" data-original="#c1d7fa" class=""></path><path fill="#f6bab6" d="M28.601 63.998a2.479 2.479 0 0 1-2.48-2.478V49.523a2.482 2.482 0 0 1-2.96-2.433V40.3a3.964 3.964 0 0 1 3.96-3.96c.19 0 .377.055.538.157 2.906 1.854 5.576 1.863 8.163.027.169-.12.372-.185.579-.185a3.961 3.961 0 0 1 3.96 3.96v6.71c0 1.324-.957 2.423-2.227 2.556-.25.021-.496.008-.733-.039V61.43c0 1.324-.957 2.422-2.227 2.555a2.514 2.514 0 0 1-1.918-.624 2.487 2.487 0 0 1-.815-1.841v-8.5a.682.682 0 0 0-1.163-.483.677.677 0 0 0-.196.482v8.41c0 1.324-.957 2.422-2.227 2.555a2.68 2.68 0 0 1-.253.013zM31.76 50.34a2.683 2.683 0 0 1 2.68 2.681v8.5a.471.471 0 0 0 .529.474c.236-.024.431-.277.431-.564V47.09a1 1 0 1 1 2 0c0 .188.099.306.157.359.06.055.192.152.383.125.226-.023.42-.277.42-.564V40.3c0-.988-.73-1.808-1.677-1.94-3.11 2.065-6.41 2.066-9.821-.003A1.964 1.964 0 0 0 25.16 40.3v6.79a.48.48 0 0 0 .96 0 1 1 0 1 1 2 0v14.431a.473.473 0 0 0 .529.474c.237-.024.432-.277.432-.564v-8.41c0-.719.278-1.393.783-1.897a2.666 2.666 0 0 1 1.897-.783z" opacity="1" data-original="#757677" class=""></path><circle cx="52.625" cy="23.748" r="4.806" fill="#e7e6ff" opacity="0" data-original="#e7e6ff" class=""></circle><ellipse cx="52.625" cy="24.709" fill="#abacf4" rx="4.566" ry="3.845" opacity="0" data-original="#abacf4" class=""></ellipse><ellipse cx="52.625" cy="23.748" fill="#c2c1fa" rx="4.806" ry="2.884" opacity="0" data-original="#c2c1fa" class=""></ellipse><path fill="#f6bab6" d="M52.625 29.554c-3.202 0-5.806-2.604-5.806-5.806s2.604-5.807 5.806-5.807 5.806 2.604 5.806 5.807-2.604 5.806-5.806 5.806zm0-9.612c-2.099 0-3.806 1.708-3.806 3.807s1.708 3.806 3.806 3.806 3.806-1.707 3.806-3.806-1.708-3.807-3.806-3.807z" opacity="1" data-original="#757677" class=""></path><path fill="#e6efff" d="M50.65 49.69c-.04.17-.07.35-.07.54V61c0 .99-.71 1.9-1.7 1.99-1.13.11-2.08-.77-2.08-1.88V49.69z" opacity="0" data-original="#e6efff" class=""></path><path fill="#9bc1f4" d="M50.554 52.352a1.6 1.6 0 0 0-.067.432V61.4c0 .792-.675 1.52-1.615 1.592-1.074.088-1.976-.616-1.976-1.504v-9.136h3.657z" opacity="0" data-original="#9bc1f4" class=""></path><path fill="#c1d7fa" d="M50.65 52.352a.887.887 0 0 0-.07.324v6.462c0 .594-.71 1.14-1.7 1.194-1.13.066-2.08-.462-2.08-1.128v-6.852z" opacity="0.050980392156862744" data-original="#c1d7fa" class=""></path><path fill="#f6bab6" d="M48.691 64a2.903 2.903 0 0 1-1.944-.749 2.894 2.894 0 0 1-.947-2.141V49.69a1 1 0 0 1 1-1h3.85c.306 0 .594.14.784.379.189.24.259.553.189.851a1.388 1.388 0 0 0-.043.311v10.77c0 1.542-1.146 2.854-2.61 2.986a2.912 2.912 0 0 1-.279.014zM47.8 50.69v10.42a.89.89 0 0 0 .983.885c.443-.04.797-.486.797-.995V50.69z" opacity="1" data-original="#757677" class=""></path><path fill="#e6efff" d="M58.66 49.69V61c0 .99-.7 1.9-1.7 1.99-1.12.11-2.08-.77-2.08-1.88V50.23c0-.19-.03-.37-.07-.54z" opacity="0" data-original="#e6efff" class=""></path><path fill="#9bc1f4" d="M58.564 52.352V61.4c0 .792-.665 1.52-1.615 1.592-1.064.088-1.976-.616-1.976-1.504v-8.704c0-.152-.028-.296-.067-.432z" opacity="0" data-original="#9bc1f4" class=""></path><path fill="#c1d7fa" d="M58.66 52.352v6.786c0 .594-.7 1.14-1.7 1.194-1.12.066-2.08-.462-2.08-1.128v-6.528a.887.887 0 0 0-.07-.324z" opacity="0.050980392156862744" data-original="#c1d7fa" class=""></path><path fill="#f6bab6" d="M56.771 64a2.893 2.893 0 0 1-2.891-2.89V50.23c0-.087-.014-.186-.043-.311a1.003 1.003 0 0 1 .973-1.23h3.85a1 1 0 0 1 1 1v11.31c0 1.543-1.147 2.854-2.611 2.986a2.891 2.891 0 0 1-.278.014zm-.891-13.31v10.42c0 .253.104.486.292.658a.887.887 0 0 0 .689.227c.503-.045.798-.541.798-.995V50.69h-1.78z" opacity="1" data-original="#757677" class=""></path><path fill="#020202" d="M44.121 45.38a1 1 0 0 1-.96-1.284l2.68-9.04a1 1 0 0 1 1.918.568l-2.68 9.04a1 1 0 0 1-.958.716zM61.35 45.37a1 1 0 0 1-.958-.715l-2.69-9.03a.999.999 0 1 1 1.917-.57l2.69 9.03a.999.999 0 0 1-.959 1.285z" opacity="0" data-original="#020202" class=""></path><path fill="#e6efff" d="M62.93 49.69H42.54l1.58-5.31c-.65-.3-1.1-.96-1.1-1.72v-8.7c0-2.08 1.69-3.77 3.78-3.77 4.17 2.65 8.13 2.65 11.86 0h.02c2.09 0 3.78 1.69 3.78 3.77v8.59c0 .78-.45 1.5-1.11 1.82z" opacity="0" data-original="#e6efff" class=""></path><path fill="#9bc1f4" d="M62.42 49.69H43.049l1.501-4.248c-.617-.24-1.045-.768-1.045-1.376v-6.96c0-1.664 1.606-3.016 3.591-3.016 3.961 2.12 7.724 2.12 11.267 0h.019c1.985 0 3.591 1.352 3.591 3.016v6.872c0 .624-.428 1.2-1.054 1.456z" opacity="0" data-original="#9bc1f4" class=""></path><path fill="#c1d7fa" d="M62.93 47.253H42.54l1.58-3.982c-.65-.225-1.1-.72-1.1-1.29v-6.525c0-1.56 1.69-2.828 3.78-2.828 4.17 1.988 8.13 1.988 11.86 0h.02c2.09 0 3.78 1.268 3.78 2.828v6.442c0 .585-.45 1.125-1.11 1.365z" opacity="0.050980392156862744" data-original="#c1d7fa" class=""></path><path fill="#f6bab6" d="M62.93 50.69H42.54a1 1 0 0 1-.959-1.285l1.374-4.616a2.902 2.902 0 0 1-.935-2.129v-8.7a4.78 4.78 0 0 1 4.78-4.77c.19 0 .376.054.536.156 3.832 2.435 7.347 2.445 10.745.028.169-.12.372-.185.579-.185 2.656 0 4.8 2.14 4.8 4.77v8.59a3.06 3.06 0 0 1-.949 2.218l1.377 4.638a1 1 0 0 1-.958 1.285zm-19.049-2H61.59l-1.198-4.035c-.14-.47.082-.971.521-1.185.322-.156.547-.535.547-.921v-8.59a2.777 2.777 0 0 0-2.506-2.756c-3.916 2.643-8.09 2.644-12.419 0a2.777 2.777 0 0 0-2.514 2.757v8.7c0 .348.204.666.519.812a1 1 0 0 1 .54 1.193l-1.198 4.025z" opacity="1" data-original="#757677" class=""></path><path fill="#e6f9e8" d="m61.35 44.37-2.69-9.03" opacity="0" data-original="#e6f9e8" class=""></path><path fill="#96e39a" d="m61.35 44.37-2.69-8.127" opacity="0" data-original="#96e39a" class=""></path><path fill="#beeec1" d="m61.35 43.693-2.69-7.676" opacity="0" data-original="#beeec1" class=""></path><path fill="#f6bab6" d="M61.35 45.37a1 1 0 0 1-.958-.715l-2.69-9.03a.999.999 0 1 1 1.917-.57l2.69 9.03a.999.999 0 0 1-.959 1.285z" opacity="1" data-original="#757677" class=""></path><path fill="#e6f9e8" d="m46.8 35.34-2.68 9.04" opacity="0" data-original="#e6f9e8" class=""></path><path fill="#96e39a" d="m46.8 36.244-2.68 8.136" opacity="0" data-original="#96e39a" class=""></path><path fill="#beeec1" d="m46.8 36.018-2.68 7.684" opacity="0" data-original="#beeec1" class=""></path><path fill="#f6bab6" d="M44.121 45.38a1 1 0 0 1-.96-1.284l2.68-9.04a1 1 0 0 1 1.918.568l-2.68 9.04a1 1 0 0 1-.958.716z" opacity="1" data-original="#757677" class=""></path><path fill="#020202" d="M26.607 5.164a.99.99 0 0 1-1-.987v-.025a1 1 0 1 1 2 0 1.01 1.01 0 0 1-1 1.013zM36.909 5.164a.99.99 0 0 1-1-.987v-.025a1 1 0 1 1 2 0 1.01 1.01 0 0 1-1 1.013z" opacity="0" data-original="#020202" class=""></path><path fill="#ffe2dd" d="M36.91 4.18v15.33c-1.72-1.11-3.43-1.67-5.15-1.67s-3.44.56-5.15 1.67V4.18c1.61-.58 3.35-.89 5.15-.89s3.54.31 5.15.89z" opacity="0" data-original="#ffe2dd" class=""></path><path fill="#f49f93" d="M36.653 7.246V19.51c-1.634-.888-3.258-1.336-4.893-1.336s-3.268.448-4.892 1.336V7.246c1.529-.464 3.182-.712 4.892-.712s3.363.248 4.893.712z" opacity="0" data-original="#f49f93" class=""></path><path fill="#fac2b9" d="M36.91 5.985v11.498c-1.72-.832-3.43-1.252-5.15-1.252s-3.44.42-5.15 1.252V5.985c1.61-.435 3.35-.668 5.15-.668s3.54.232 5.15.668z" opacity="0" data-original="#fac2b9" class=""></path><path fill="#f6bab6" d="M36.91 20.51a1.01 1.01 0 0 1-.542-.159c-3.139-2.025-6.116-2.012-9.214-.002a1 1 0 0 1-1.544-.839V4.181c0-.422.265-.798.661-.94a16.39 16.39 0 0 1 10.978 0 1 1 0 0 1 .661.94V19.51a1 1 0 0 1-1 1zm-5.15-3.67c1.379 0 2.77.326 4.15.973V4.902a14.444 14.444 0 0 0-8.3 0v12.907c1.375-.645 2.765-.97 4.15-.97z" opacity="1" data-original="#757677" class=""></path><path fill="#e6f9e8" d="M26.61 4.18v15.33c-3.48-2.2-6.91-2.25-10.31 0v-.76c0-6.73 4.31-12.46 10.31-14.57z" opacity="0" data-original="#e6f9e8" class=""></path><path fill="#96e39a" d="M26.352 7.246V19.51c-3.306-1.76-6.565-1.8-9.794 0v-.608c0-5.384 4.094-9.968 9.794-11.656z" opacity="0" data-original="#96e39a" class=""></path><path fill="#beeec1" d="M26.61 6.096v11.498c-3.48-1.65-6.91-1.688-10.31 0v-.57c0-5.047 4.31-9.345 10.31-10.928z" opacity="0" data-original="#beeec1" class=""></path><path fill="#f6bab6" d="M16.3 20.51a1 1 0 0 1-1-1v-.76c0-6.97 4.412-13.204 10.979-15.513a1 1 0 0 1 1.332.943v15.329a1 1 0 0 1-1.535.846c-3.181-2.011-6.198-2.014-9.224-.012-.167.11-.359.166-.552.166zm5.094-3.673c1.396 0 2.803.328 4.216.985V5.668a14.467 14.467 0 0 0-8.277 12.112c1.34-.629 2.696-.943 4.062-.943z" opacity="1" data-original="#757677" class=""></path><path fill="#e6f9e8" d="M47.21 18.75v.76c-3.28-2.32-6.73-2.13-10.3 0V4.18c2.2.77 4.16 2.02 5.78 3.64 2.8 2.79 4.52 6.65 4.52 10.93z" opacity="0" data-original="#e6f9e8" class=""></path><path fill="#96e39a" d="M46.952 18.902v.608c-3.116-1.856-6.393-1.704-9.785 0V7.246c2.09.616 3.952 1.616 5.491 2.912 2.66 2.232 4.294 5.32 4.294 8.744z" opacity="0" data-original="#96e39a" class=""></path><path fill="#beeec1" d="M47.21 17.024v.57c-3.28-1.74-6.73-1.598-10.3 0V6.096c2.2.578 4.16 1.515 5.78 2.73 2.8 2.092 4.52 4.988 4.52 8.197z" opacity="0" data-original="#beeec1" class=""></path><path fill="#f6bab6" d="M47.21 20.51a.997.997 0 0 1-.577-.184c-2.814-1.99-5.827-1.975-9.21.042a.999.999 0 0 1-1.512-.858V4.181a.999.999 0 0 1 1.33-.944 16.22 16.22 0 0 1 6.157 3.877c3.103 3.092 4.813 7.225 4.813 11.637v.76a.998.998 0 0 1-1 1zm-9.3-14.844v12.189c2.904-1.318 5.672-1.358 8.266-.115a14.298 14.298 0 0 0-4.192-9.212 14.258 14.258 0 0 0-4.074-2.862z" opacity="1" data-original="#757677" class=""></path><g fill="#757677"><path d="M31.758 29.575a1 1 0 0 1-1-1v-10.73a1 1 0 1 1 2 0v10.73a1 1 0 0 1-1 1zM31.758 4.293a1 1 0 0 1-1-1V1.001a1 1 0 0 1 2-.001v2.293a1 1 0 0 1-1 1z" fill="#f6bab6" opacity="1" data-original="#757677" class=""></path></g></g></svg>