<svg xmlns="http://www.w3.org/2000/svg" version="1.1" xmlns:xlink="http://www.w3.org/1999/xlink" width="40" height="40" x="0" y="0" viewBox="0 0 512 512" style="enable-background:new 0 0 512 512" xml:space="preserve" class=""><g><g data-name="34. Gynecology"><path fill="#ffffff" d="M256 88V56h136a80 80 0 0 1 0 160v-32a48 48 0 0 0 0-96z" opacity="0" data-original="#e38499" class=""></path><path d="M392 224a8 8 0 0 1-8-8v-32a8 8 0 0 1 8-8 40 40 0 0 0 0-80H256a8 8 0 0 1-8-8V56a8 8 0 0 1 8-8h136a88 88 0 0 1 0 176zm8-32.57v16.13A72 72 0 0 0 392 64H264v16h128a56 56 0 0 1 8 111.43z" fill="#f6bab6" opacity="1" data-original="#000000" class=""></path><circle cx="384" cy="200" r="32" fill="#ffffff" opacity="0" data-original="#e38499" class=""></circle><path fill="#ffffff" d="M384 208a32 32 0 0 1-29.67-20 32 32 0 1 0 59.34 0A32 32 0 0 1 384 208z" opacity="0" data-original="#db4e6c" class=""></path><path d="M384 240a40 40 0 1 1 40-40 40 40 0 0 1-40 40zm0-64a24 24 0 1 0 24 24 24 24 0 0 0-24-24z" fill="#f6bab6" opacity="1" data-original="#000000" class=""></path><path fill="#ffffff" d="M224 88V56H88a80 80 0 0 0 0 160v-32a48 48 0 0 1 0-96z" opacity="0" data-original="#e38499" class=""></path><path d="M88 224a88 88 0 0 1 0-176h32a8 8 0 0 1 0 16H88a72 72 0 0 0-8 143.56v-16.13A56 56 0 0 1 88 80h128V64h-56a8 8 0 0 1 0-16h64a8 8 0 0 1 8 8v32a8 8 0 0 1-8 8H88a40 40 0 0 0 0 80 8 8 0 0 1 8 8v32a8 8 0 0 1-8 8z" fill="#f6bab6" opacity="1" data-original="#000000" class=""></path><circle cx="96" cy="200" r="32" fill="#ffffff" opacity="0" data-original="#e38499" class=""></circle><path fill="#ffffff" d="M96 208a32 32 0 0 1-29.67-20 32 32 0 1 0 59.34 0A32 32 0 0 1 96 208z" opacity="0" data-original="#db4e6c" class=""></path><path d="M96 240a40 40 0 1 1 40-40 40 40 0 0 1-40 40zm0-64a24 24 0 1 0 24 24 24 24 0 0 0-24-24z" fill="#f6bab6" opacity="1" data-original="#000000" class=""></path><path fill="#ffffff" d="M301.29 196a104 104 0 1 0-122.58 0c-26.79 22.34-24.64 55.41 5.29 76l-8 96 8 136h112l8-136-8-96c29.93-20.57 32.08-53.64 5.29-76z" opacity="0" data-original="#e38499" class=""></path><path fill="#ffffff" d="M297.41 480 296 504H184l-1.41-24z" opacity="0" data-original="#db4e6c" class=""></path><path d="M296 512H184a8 8 0 0 1-8-7.53c-8.54-145.29-8.06-136.25-8-137.13l7.62-91.55c-29-22.46-30.49-55.66-9.07-79.22a112 112 0 1 1 146.84 0c21.43 23.57 19.92 56.76-9.07 79.22l7.68 91.55c.07.84.6-8.79-8 137.13a8 8 0 0 1-8 7.53zm-104.46-16h96.92L296 368.1l-8-95.46a8 8 0 0 1 3.44-7.26c25.41-17.44 27.55-44.16 4.7-63.21a8 8 0 0 1 .4-12.61 96 96 0 1 0-113.14 0 8 8 0 0 1 .4 12.61c-22.83 19-20.73 45.76 4.7 63.21a8 8 0 0 1 3.44 7.26L184 368.1z" fill="#f6bab6" opacity="1" data-original="#000000" class=""></path><path fill="#ffffff" d="M216 504V272a32 32 0 0 0-13.89-26.38c-4.39-3-10.11-8.32-10.11-13.6 0-6 7.77-11.87 7.2-11.4a32 32 0 0 0-1.61-50.42 72 72 0 1 1 84.82 0 32 32 0 0 0-1.61 50.42c3.27 2.73 7.2 7.11 7.2 11.4 0 7.34-11.08 14.26-10.11 13.6A32 32 0 0 0 264 272v232z" opacity="0" data-original="#f4d7de" class=""></path><path fill="#ffffff" d="M216 480h48v24h-48z" opacity="0" data-original="#ebaebc" class=""></path><path d="M264 512h-48a8 8 0 0 1-8-8V272a24 24 0 0 0-10.42-19.79C188.82 246.18 184 239 184 232c0-7.95 6.32-14.41 10.08-17.55a24 24 0 0 0-1.21-37.81 80 80 0 1 1 94.26 0 24 24 0 0 0-1.21 37.81c3.76 3.14 10.08 9.6 10.08 17.55 0 7-4.82 14.18-13.58 20.19A24 24 0 0 0 272 272v232a8 8 0 0 1-8 8zm-40-16h32V272a40 40 0 0 1 17.36-33c5-3.43 6.45-6.27 6.63-7-.19-.84-1.64-3-4.32-5.25a40 40 0 0 1 2-63 64 64 0 1 0-75.38 0 40 40 0 0 1 2 63c-2.68 2.24-4.13 4.41-4.32 5.25.18.74 1.63 3.58 6.63 7a40 40 0 0 1 17.4 33z" fill="#f6bab6" opacity="1" data-original="#000000" class=""></path><circle cx="400" cy="400" r="104" fill="#ffffff" opacity="0" data-original="#cd4f5f" class=""></circle><path fill="#ffffff" d="M400 480a104 104 0 0 1-103.31-92 104 104 0 1 0 206.62 0A104 104 0 0 1 400 480z" opacity="0" data-original="#b24654" class=""></path><path d="M400 512a112 112 0 1 1 112-112 110.88 110.88 0 0 1-23.72 68.93 8 8 0 0 1-12.6-9.86A95 95 0 0 0 496 400a96 96 0 1 0-44.31 80.91 8 8 0 1 1 8.62 13.48A111.62 111.62 0 0 1 400 512z" fill="#f6bab6" opacity="1" data-original="#000000" class=""></path><path fill="#f6f6f6" d="M456 384h-40v-40h-32v40h-40v32h40v40h32v-40h40z" opacity="0" data-original="#f6f6f6" class=""></path><path d="M416 464h-32a8 8 0 0 1-8-8v-32h-32a8 8 0 0 1-8-8v-32a8 8 0 0 1 8-8h32v-32a8 8 0 0 1 8-8h32a8 8 0 0 1 8 8v32h32a8 8 0 0 1 8 8v32a8 8 0 0 1-8 8h-32v32a8 8 0 0 1-8 8zm-24-16h16v-32a8 8 0 0 1 8-8h32v-16h-32a8 8 0 0 1-8-8v-32h-16v32a8 8 0 0 1-8 8h-32v16h32a8 8 0 0 1 8 8z" fill="#f6bab6" opacity="1" data-original="#000000" class=""></path><path fill="#a7a7a7" d="M287.11 166.43C273.76 161.62 264 146.23 264 128c0-29.29 24.18-48.2 45-36.55a72.14 72.14 0 0 1-21.89 74.98z" opacity="0" data-original="#ead590" class=""></path><path d="M284.4 174c-17-6.12-28.4-24.59-28.4-46 0-35.4 30.74-58.17 56.91-43.53a7.93 7.93 0 0 1 3.76 4.68 80 80 0 0 1-24.32 83.32 8 8 0 0 1-7.95 1.53zM272 128c0 12.41 5.44 23.56 13.65 28.83a64 64 0 0 0 16.6-59.71C287.79 91.81 272 106 272 128z" fill="#f6bab6" opacity="1" data-original="#000000" class=""></path></g></g></svg>