<svg xmlns="http://www.w3.org/2000/svg" version="1.1" xmlns:xlink="http://www.w3.org/1999/xlink" width="40" height="40" x="0" y="0" viewBox="0 0 64 64" style="enable-background:new 0 0 512 512" xml:space="preserve" class=""><g><g fill="#424242"><path d="M32 59c14.91 0 27-12.09 27-27S46.91 5 32 5 5 17.09 5 32s12.09 27 27 27zm0-51c13.233 0 24 10.767 24 24S45.233 56 32 56 8 45.233 8 32 18.767 8 32 8z" fill="#f6bab6" opacity="1" data-original="#424242"></path><path d="M32 54c12.131 0 22-9.869 22-22s-9.869-22-22-22-22 9.869-22 22 9.869 22 22 22zm-6.735-6.852c-.377.365-.883.559-1.462.559-.933 0-1.991-.516-2.83-1.381-.826-.851-1.31-1.909-1.294-2.832.005-.326.077-.625.199-.894-1.725-4.974-.235-6.403 1.749-7.614 1.165-.71 1.934-1.18 1.51-3.541l1.969-.352c.665 3.707-1.128 4.801-2.437 5.6-1.254.766-2.182 1.34-1.058 4.802.95-.038 2.074.427 2.965 1.335.829.854 1.313 1.911 1.298 2.833-.011.597-.221 1.11-.609 1.485zm2.02-13.283c.176-1.253 1.047-2.312 2.589-3.145 2.573-1.385 2.233-2.352 1.67-3.954-.409-1.165-.969-2.761.409-4.175l1.432 1.396c-.47.482-.367.938.046 2.115.585 1.666 1.469 4.183-2.607 6.377-.951.514-1.476 1.074-1.559 1.663-.126.896.725 1.864 1.137 2.273.161.103.301.228.424.379l.013.011-.002.002c.063.078.136.145.185.232l-.813.456-.026.028.847-.484c.717 1.213-.074 2.965-1.8 3.988-.757.447-1.579.685-2.316.686-.261 0-.511-.03-.745-.092-.575-.149-1.023-.475-1.294-.939-.269-.444-.34-.991-.197-1.566.222-.895.965-1.794 1.988-2.405a5.171 5.171 0 0 1 1.102-.492c-.365-.685-.604-1.489-.483-2.354zm8.139 1.49c.152-2.084.366-4.865 4.097-5.461.11-.918.732-1.904 1.77-2.662 1.611-1.153 3.571-1.18 4.382-.058.317.442.433.987.336 1.577-.149.908-.813 1.862-1.775 2.551-.788.576-1.712.909-2.528.909-.533 0-.996-.147-1.368-.407-2.656.213-2.76 1.546-2.918 3.697-.141 1.924-.333 4.559-3.51 5.34l-.477-1.943c1.685-.414 1.841-1.5 1.991-3.543zm6.708 11.568c-1.225-.04-2.113-.069-3.599 2.085-1.327 1.924-2.99 2.517-4.43 2.517a5.433 5.433 0 0 1-1.701-.282c-.536.506-1.37.803-2.373.803-.342 0-.691-.035-1.038-.104-2.004-.419-3.292-1.786-3.001-3.185.235-1.121 1.396-1.846 2.957-1.846.347 0 .702.037 1.055.111 1.153.232 2.149.832 2.659 1.604.15.227.249.463.31.702.82.286 2.531.552 3.915-1.454 2.104-3.054 3.879-2.996 5.311-2.949 1.097.039 1.889.063 3.114-1.278l1.477 1.35c-1.847 2.019-3.41 1.968-4.656 1.926zm8.763-9.005c-.447.807-1.394 1.48-2.531 1.804a5.135 5.135 0 0 1-1.404.202h-.001c-1.188 0-2.112-.455-2.538-1.209-.56-.316-1.658-.783-2.479-.518-.489.158-.856.581-1.124 1.293-.83 2.205-1.893 4.629-4.004 5.497a4.519 4.519 0 0 1-1.744.335c-.979 0-2.064-.277-3.276-.834l.835-1.816c1.449.664 2.572.817 3.424.465 1.231-.506 2.047-2.104 2.893-4.35.61-1.627 1.638-2.256 2.393-2.496 1.16-.372 2.347-.077 3.205.273.104-.163.221-.322.364-.473.51-.533 1.248-.957 2.08-1.193a5.008 5.008 0 0 1 1.406-.207c1.387 0 2.429.625 2.719 1.631.148.522.073 1.073-.218 1.596zm-6.439-21.273 1.527 1.291c-.428.506-.68 1.686-.352 2.395.134.286.421.669 1.369.669.86 0 1.626.326 2.214.941 1.136 1.19 1.374 3.215 1.414 4.324.169.1.33.217.477.367.641.657 1.012 1.761.995 2.951-.028 2.016-1.119 3.536-2.539 3.536h-.022c-.537-.007-1.04-.235-1.455-.661-.646-.662-1.02-1.766-1.003-2.954.021-1.511.638-2.745 1.542-3.267-.048-.913-.248-2.281-.856-2.916A.993.993 0 0 0 47 23c-2.031 0-2.866-1.146-3.183-1.829-.707-1.525-.23-3.499.639-4.526zm-5.975-1.553c.725-.395 1.515-.611 2.224-.611.963 0 1.732.396 2.112 1.088.68 1.262-.148 2.946-1.924 3.928-.725.394-1.512.609-2.222.609a2.822 2.822 0 0 1-1.24-.271c-.279.292-.354.493-.367.604-.043.376.459.959.944 1.522 1.187 1.378 3.171 3.683-.387 6.829l-1.324-1.498c2.079-1.839 1.41-2.615.195-4.025-.73-.848-1.558-1.809-1.416-3.055.082-.723.501-1.398 1.237-2.056a2.267 2.267 0 0 1 .089-.743c.262-.888 1.038-1.755 2.079-2.321zm-9.493.963c-.251-1.982.771-3.486 2.67-3.927 1.861-.432 4.263.297 4.868 2.068l-1.893.646c-.187-.548-1.446-1.015-2.524-.767-.887.205-1.259.771-1.137 1.728.377 2.999-1.056 5.028-2.162 6.12.505.644.82 1.578.82 2.666 0 2.041-1.079 3.58-2.51 3.58s-2.51-1.539-2.51-3.58c0-1.85.894-3.271 2.13-3.52.569-.402 2.618-2.077 2.248-5.014zm-9.24 2.542c.201-.479.492-.813.779-1.048-.024-.389.05-.806.228-1.226.287-.681.826-1.339 1.518-1.855 1.557-1.161 3.549-1.227 4.37-.125.32.421.447.96.364 1.55-.129.917-.775 1.889-1.727 2.6-.808.602-1.745.947-2.569.947-.381 0-.73-.072-1.034-.211a.738.738 0 0 0-.094.17c-.114.303-.25 1.227.951 3.264 2.174 3.675-.354 5.438-1.863 6.49-1.621 1.131-1.745 1.393-1.102 2.333l-1.651 1.129c-1.842-2.695.318-4.202 1.609-5.103 1.699-1.184 2.463-1.842 1.286-3.832-1.242-2.101-1.599-3.811-1.065-5.083zm-5.884 20.049c.276-1.193.536-2.32-.72-4.036-1.142-1.567-1.567-3.14-1.267-4.678.284-1.453 1.165-2.515 1.851-3.154-.378-.868-.333-2.071.216-3.25.835-1.794 2.522-2.759 3.785-2.177.491.227.858.641 1.063 1.2.316.864.207 2.022-.295 3.101-.667 1.436-1.832 2.363-2.967 2.363-.056 0-.109-.014-.165-.018-.457.369-1.311 1.189-1.528 2.332-.184.965.126 2.009.921 3.101 1.796 2.454 1.368 4.311 1.054 5.666-.293 1.269-.382 1.651 1.273 2.454l-.872 1.799c-3.09-1.497-2.679-3.275-2.349-4.703z" fill="#f6bab6" opacity="1" data-original="#424242"></path></g></g></svg>