<svg xmlns="http://www.w3.org/2000/svg" version="1.1" xmlns:xlink="http://www.w3.org/1999/xlink" width="40" height="40" x="0" y="0" viewBox="0 0 500 500" style="enable-background:new 0 0 512 512" xml:space="preserve" class=""><g><path fill-rule="evenodd" d="M357.955 298.476c-.911 36.686-4.908 77.46-8.099 105.207-1.355 11.798-9.755 20.916-21.398 23.248L232.6 446.103a6.57 6.57 0 0 0-1.561.526c-12.602 6.013-24.269 9.169-34.675 9.363-21.058.383-29.186-5.979-37.845-21.23l69.305-3.847c5.345-.297 9.891-1.435 14.744-3.704l57.088-26.643c6.924-3.224 10.834-10.483 9.728-18.04-2.105-14.433-7.163-51.932-8.587-88.384-2.081-53.172 5.254-66.931 8.505-70.378 5.649-5.99 12.117-8.426 20.248-8.426 7.686 0 14.255 2.835 19.527 8.426 3.144 3.332 10.305 17.296 8.878 74.71zm-216.097 56.556c0 25.38 10.95 49.171 30.133 65.679l55.097-3.064c3.621-.2 6.571-.943 9.858-2.475l57.09-26.643c1.614-.755 2.456-2.315 2.199-4.076-2.139-14.639-7.268-52.704-8.719-89.796-1.697-43.392 2.264-69.566 12.116-80.01a43.839 43.839 0 0 1 2.96-2.853h-41.898l-2.675.246c-14.519 1.32-30.461 19.504-30.461 34.743a29 29 0 0 0 2.702 12.29c1.985 4.278-1.017 9.229-5.729 9.438-46.36 2.075-82.673 40.088-82.673 86.521zm143.845-174.636c8.974 0 17.879-1.509 25.833-4.539.154 7.62.462 15.182 1.016 22.647H268.11l2.925-19.481a78.695 78.695 0 0 0 14.668 1.373zm-62.998-84.491c-.002-.989.02-1.989.056-2.995 26.669 16.043 58.884 10.484 88.805 9.581.519 18.089-.167 39.803-.167 58.9-14.313 7.265-37.705 8.603-55.351-1.749-20.239-11.857-33.326-36.882-33.343-63.737zm-16.283-39.162c3.897 7.282 9.171 13.787 15.668 19.349 19.775 16.909 45.502 15.445 72.739 13.896 7.61-.435 15.481-.886 23.126-.886a6.647 6.647 0 0 1 6.639 6.322c.645 13.313.466 27.907.279 43.352-.259 21.15-.518 42.934 1.313 63.358 9.329-.549 17.854 1.381 25.556 6.556.197-42.288-.828-86.52-7.97-129.958-2.194-13.342-12.247-23.282-25.613-25.334-34.005-5.213-68.943-8.38-103.845-9.409-6.691-.181-11.05 6.842-7.892 12.754zm158.48 168.468c.496-47.759.226-98.507-8.016-148.639-3.144-19.121-17.555-33.377-36.714-36.309-34.541-5.299-70.024-8.506-105.466-9.552-16.92-.52-27.986 17.395-20.002 32.308 4.017 7.494 9.24 14.296 15.541 20.27-4.675 35.37 10.454 71.035 39.08 87.824 2.787 1.635 5.745 3.041 8.822 4.247l-3.566 23.716c-20.674 3.332-40.315 26.22-40.315 47.707a42.6 42.6 0 0 0 .998 9.209c-49.265 6.465-86.699 48.41-86.699 99.039 0 24.9 9.146 48.468 25.491 66.668-3.993.251-7.206 1.693-9.269 5.345a10.432 10.432 0 0 0-.138 10.055c11.506 21.743 23.258 32.7 51.964 32.182 12.1-.229 25.353-3.693 39.397-10.306l95.057-19.012c17.408-3.481 29.966-17.126 31.995-34.76 4.727-41.088 15.177-144.012 1.84-179.992zM224.968 388.724c.773.423 1.463.423 2.238 0 16.679-9.18 34.54-30.428 34.54-47.433 0-16.115-20.069-23.602-30.664-11.524-2.638 3.007-7.356 3.007-9.995 0-10.607-12.085-30.662-4.579-30.662 11.524.001 17.005 17.859 38.264 34.543 47.433zm50.071-47.434c0-25.211-28.748-39.614-48.954-24.86-20.195-14.751-48.952-.357-48.952 24.86 0 22.711 21.065 47.879 41.429 59.083 4.767 2.622 10.282 2.622 15.048 0 20.366-11.204 41.429-36.372 41.429-59.083z" clip-rule="evenodd" fill="#f6bab6" opacity="1" data-original="#000000" class=""></path></g></svg>