<svg xmlns="http://www.w3.org/2000/svg" version="1.1" xmlns:xlink="http://www.w3.org/1999/xlink" width="40" height="40" x="0" y="0" viewBox="0 0 512 512" style="enable-background:new 0 0 512 512" xml:space="preserve"><g><path d="m488.718 375.292-159.651 53.22c-23.325 7.757-48.681 4.79-69.571-8.136l-70.58-43.71a82.907 82.907 0 0 0-43.754-12.482h-16.995a5.311 5.311 0 0 0 0 10.622h16.995a72.296 72.296 0 0 1 38.157 10.887l70.588 43.715c23.609 14.604 52.231 17.924 78.516 9.181l159.649-53.217c15.434-5.126 22.623-22.015 16.914-36.378-4.813-12.103-17.28-18.914-29.612-17.047l-92.435 13.64c-1.291-12.129-10.085-22.192-22.41-24.984-45.831-10.407-78.306-29.677-97.49-44.016-26.251-19.521-56.731-29.84-88.151-29.84h-50.722a5.311 5.311 0 0 0 0 10.622h50.722c29.116 0 57.408 9.593 81.802 27.732 19.998 14.949 53.837 35.04 101.486 45.86 8.48 1.922 14.401 9.183 14.401 17.659-.237.531-.35 19.388-18.232 18.854-24.121-.425-70.1-3.735-107.033-21.111a5.303 5.303 0 0 0-7.067 2.544 5.31 5.31 0 0 0 2.544 7.067c38.725 18.221 86.397 21.681 111.354 22.122 13.707.178 24.938-8.869 28.115-21.672l94.686-13.972c7.775-1.198 15.312 3.278 18.17 10.464 3.616 9.097-1.136 19.303-10.396 22.376zM6.377 404.655h82.168c13.063 0 23.688-10.602 23.688-23.634V243.88c0-13.061-10.625-23.688-23.688-23.688H6.377a5.311 5.311 0 0 0-5.311 5.311v51.363a5.311 5.311 0 0 0 10.622 0v-46.051h76.856c7.205 0 13.066 5.861 13.066 13.066v137.14c0 7.173-5.861 13.011-13.066 13.011H11.688v-31.549a5.311 5.311 0 0 0-10.622 0v36.86a5.312 5.312 0 0 0 5.311 5.312z" fill="#f6bab6" opacity="1" data-original="#000000"></path><path d="M6.377 321.32a5.311 5.311 0 0 0 5.311-5.311v-17.791a5.311 5.311 0 0 0-10.622 0v17.791a5.311 5.311 0 0 0 5.311 5.311zM262.857 170.52c.023 0 .057.008.07 0 4.232 0 8.219 3.68 8.535 7.876.387 5.206-1.689 10.918-2.658 17.181-3.263 21.178 7.928 44.389 27.846 57.756 30.336 20.367 78.798 17.485 100.122 1.808 10.397-7.648 16.691-19.407 16.922-30.797 4.536.293 9.126.804 13.006 1.981 6.333 1.922 13.737 3.921 21.302 3.234 9.069-.814 16.87-5.674 20.356-12.682 4.186-8.42 1.057-19.868-7.591-23.712-2.648-1.45-21.512-4.44-28.048-8.514-4.165-2.591-7.741-6.6-11.528-10.843-6.447-7.228-13.115-14.702-23.639-16.077-10.942-1.424-20.252 4.816-28.437 10.324-3.62 2.384-8.801 6.181-12.651 7.013 6.452-11.65 6.403-25.818 4.943-36.526-1.149-8.444-8.755-14.534-17.228-13.893a16.046 16.046 0 0 0-9.801 4.339c-2.832-3.581-7.183-5.55-8.711-7.666-2.437-3.369-.216-9.929.005-16.543.761-23-23.384-42.119-53.391-34.43-9.899 2.531-19.713 7.718-30.001 15.854-9.222 7.293-15.226 14.241-18.896 21.868-6.652 13.844-5.322 30.958 3.39 43.603 8.011 11.628 21.832 18.846 36.083 18.846zm66.622-18.533.031 1.942a5.464 5.464 0 0 1-3.81 5.317l-8.522 2.744a10.238 10.238 0 0 1 1.738-2.233c2.474-2.398 7.263-5.055 10.563-7.77zm-96.519-39.313c2.944-6.12 7.998-11.883 15.908-18.138 9.1-7.194 17.62-11.74 26.043-13.896 22.896-5.833 40.677 7.736 40.144 23.787-.208 6.42-3.401 15.646 2.002 23.118 3.168 4.386 8.268 6.31 9.386 8.652 2.589 5.45-9.938 11.103-14.92 15.934-4.907 4.759-8.276 13.011-4.085 19.881a5.306 5.306 0 0 0 6.162 2.29l15.358-4.946c6.797-2.189 11.287-8.455 11.175-15.594l-.207-12.957a5.497 5.497 0 0 1 5.068-5.563c2.866-.228 5.495 1.854 5.89 4.736 1.201 8.82 1.839 25.104-7.409 35.071-2.367 2.548-1.681 6.652 1.387 8.296 11.506 6.154 19.879.403 30.185-6.476 6.95-4.679 14.168-9.536 21.131-8.602 6.605.861 11.463 6.307 17.088 12.612 4.118 4.619 8.377 9.391 13.836 12.791 8.293 5.166 26.211 7.969 29.202 9.142 3.002 1.191 4.148 6.108 2.542 9.339-1.826 3.667-6.455 6.349-11.792 6.828-5.664.514-11.645-1.11-17.272-2.819-6.906-2.093-14.733-2.433-21.65-2.731-3.454-.147-6.116 2.984-5.433 6.359 2.163 10.711-4.577 21.175-12.218 26.795-17.36 12.761-60.952 16.026-87.912-2.067-16.562-11.118-25.914-30.136-23.266-47.317.939-6.082 3.286-12.411 2.752-19.593-.731-9.769-9.308-17.708-19.127-17.708a.236.236 0 0 0-.065 0c-10.646 0-21.375-5.589-27.34-14.251-6.487-9.415-7.517-22.667-2.563-32.973z" fill="#f6bab6" opacity="1" data-original="#000000"></path></g></svg>