<svg xmlns="http://www.w3.org/2000/svg" version="1.1" xmlns:xlink="http://www.w3.org/1999/xlink" width="40" height="40" x="0" y="0" viewBox="0 0 68 68" style="enable-background:new 0 0 512 512" xml:space="preserve"><g><path d="M60.895 32.783a.75.75 0 0 0 .836-.653c.503-4.043.516-8.454.04-13.11-.133-1.313-1.06-2.445-2.305-2.818-3.266-.977-4.746-3.137-4.656-6.798.034-1.372-.704-2.615-1.88-3.166C40.846.568 27.803.575 15.213 6.256c-1.185.535-1.934 1.77-1.908 3.147.065 3.499-1.483 5.695-4.734 6.712-1.335.418-2.278 1.56-2.403 2.91-2.51 26.974 11.915 38.68 26.359 46.575a3.346 3.346 0 0 0 3.06.075c12.5-6.073 20.373-14.12 24.072-24.6a.75.75 0 1 0-1.414-.5c-3.561 10.09-11.187 17.86-23.313 23.752a1.845 1.845 0 0 1-1.686-.043C19.231 56.623 5.231 45.272 7.661 19.164c.07-.747.603-1.381 1.358-1.618 3.917-1.225 5.864-3.975 5.786-8.172-.015-.775.388-1.462 1.025-1.75 12.178-5.496 24.787-5.505 36.463-.029.638.299 1.036.995 1.017 1.773-.106 4.32 1.82 7.103 5.726 8.271.67.2 1.17.817 1.244 1.533.464 4.544.451 8.842-.037 12.774a.75.75 0 0 0 .652.837z" fill="#f6bab6" opacity="1" data-original="#000000"></path><path d="M54.591 21.782c-3.73-1.978-6.03-5.312-6.651-9.642a.75.75 0 0 0-.47-.593c-8.63-3.351-17.89-3.318-26.85.08a.75.75 0 0 0-.475.583c-.671 4.24-3.01 7.526-6.764 9.502a.749.749 0 0 0-.4.626c-1.02 20.392 9.432 29.327 20.88 35.943.224.13.5.133.727.013 14.902-7.907 21.385-19.313 20.4-35.894a.749.749 0 0 0-.397-.618zm-20.34 34.99C23.437 50.46 13.653 41.916 14.46 22.834c3.84-2.153 6.283-5.58 7.092-9.954 8.35-3.067 16.928-3.103 24.972-.088.757 4.467 3.164 7.949 6.99 10.11.824 15.777-5.134 26.25-19.262 33.872z" fill="#f6bab6" opacity="1" data-original="#000000"></path><path d="M34 20.145c-6.558 0-11.894 5.335-11.894 11.893S27.442 43.93 34 43.93s11.893-5.335 11.893-11.892S40.557 20.145 34 20.145zm0 22.285c-5.732 0-10.394-4.662-10.394-10.392S28.268 21.645 34 21.645s10.393 4.662 10.393 10.393S39.73 42.43 34 42.43z" fill="#f6bab6" opacity="1" data-original="#000000"></path><path d="M38.817 29.292a.749.749 0 0 0-1.023-.28l-3.045 1.735v-3.705a.75.75 0 1 0-1.5 0v3.705l-3.045-1.735a.75.75 0 1 0-.742 1.303l3.023 1.723-3.023 1.722a.75.75 0 1 0 .742 1.303l3.045-1.735v3.706a.75.75 0 0 0 1.5 0v-3.706l3.045 1.735a.75.75 0 1 0 .742-1.303l-3.022-1.722 3.022-1.723a.75.75 0 0 0 .281-1.023z" fill="#f6bab6" opacity="1" data-original="#000000"></path></g></svg>