<svg xmlns="http://www.w3.org/2000/svg" version="1.1" xmlns:xlink="http://www.w3.org/1999/xlink" width="40" height="40" x="0" y="0" viewBox="0 0 512 512" style="enable-background:new 0 0 512 512" xml:space="preserve" class=""><g><path fill="#f6bab6" d="M379.216 78.16v273.788c0 11.261-9.129 20.39-20.39 20.39H31.533c-11.261 0-20.39-9.129-20.39-20.39V78.16c0-11.261 9.129-20.39 20.39-20.39h327.293c11.261 0 20.39 9.129 20.39 20.39z" opacity="0" data-original="#9cc0fd" class=""></path><path fill="#ffffff" d="M39.758 86.386h310.843v229.312H39.758zM78.021 344.15a9.377 9.377 0 0 1-9.377 9.377h-8.595a9.377 9.377 0 0 1-9.377-9.377 9.377 9.377 0 0 1 9.377-9.377h8.595a9.377 9.377 0 0 1 9.377 9.377zM120.33 344.15a9.377 9.377 0 0 1-9.377 9.377h-8.595a9.377 9.377 0 0 1-9.377-9.377 9.377 9.377 0 0 1 9.377-9.377h8.595a9.377 9.377 0 0 1 9.377 9.377zM162.64 344.15a9.377 9.377 0 0 1-9.377 9.377h-8.595a9.377 9.377 0 0 1-9.377-9.377 9.377 9.377 0 0 1 9.377-9.377h8.595a9.377 9.377 0 0 1 9.377 9.377z" opacity="0" data-original="#ffffff" class=""></path><path fill="#f6bab6" d="m487.016 180.037-10.996 97.48a12.987 12.987 0 0 1-12.905 11.531h-24.528a12.987 12.987 0 0 1-12.905-11.531l-10.996-97.48z" opacity="0" data-original="#9cc0fd" class=""></path><path fill="#ffffff" d="M500.862 148.264v23.869a7.905 7.905 0 0 1-7.905 7.905h-82.972a7.905 7.905 0 0 1-7.905-7.905v-23.869a7.905 7.905 0 0 1 7.905-7.905h82.972a7.906 7.906 0 0 1 7.905 7.905z" opacity="0" data-original="#ffffff" class=""></path><path fill="#f6bab6" d="m480.235 121.754 8.951 18.605h-75.429l8.951-18.605a9.567 9.567 0 0 1 8.62-5.419h40.289a9.567 9.567 0 0 1 8.618 5.419zM148.38 149.279l-39.685 76.745c50.932 36.365 108.833 35.043 172.969 0l-37.813-76.745c-33.232 12.283-65.193 13.484-95.471 0z" opacity="0" data-original="#9cc0fd" class=""></path><g fill="#5c8ffc"><path d="M350.601 81.49H39.758a4.896 4.896 0 0 0-4.897 4.897v229.312a4.896 4.896 0 0 0 4.897 4.897H350.6a4.896 4.896 0 0 0 4.897-4.897V86.387a4.894 4.894 0 0 0-4.896-4.897zm-4.897 229.312H44.656V91.284h301.048zM68.644 329.876H60.05c-7.872 0-14.276 6.404-14.276 14.273s6.404 14.273 14.276 14.273h8.594c7.872 0 14.275-6.404 14.275-14.273.001-7.869-6.403-14.273-14.275-14.273zm0 18.752H60.05c-2.473 0-4.481-2.009-4.481-4.479s2.009-4.479 4.481-4.479h8.594a4.484 4.484 0 0 1 4.481 4.479 4.483 4.483 0 0 1-4.481 4.479zM110.954 329.876h-8.594c-7.872 0-14.275 6.404-14.275 14.273s6.404 14.273 14.275 14.273h8.594c7.867 0 14.271-6.404 14.271-14.273s-6.404-14.273-14.271-14.273zm0 18.752h-8.594c-2.473 0-4.481-2.009-4.481-4.479s2.009-4.479 4.481-4.479h8.594a4.482 4.482 0 0 1 4.476 4.479 4.481 4.481 0 0 1-4.476 4.479zM153.264 329.876h-8.594c-7.872 0-14.275 6.404-14.275 14.273s6.404 14.273 14.275 14.273h8.594c7.867 0 14.271-6.404 14.271-14.273s-6.404-14.273-14.271-14.273zm0 18.752h-8.594c-2.473 0-4.481-2.009-4.481-4.479s2.009-4.479 4.481-4.479h8.594a4.482 4.482 0 0 1 4.476 4.479 4.481 4.481 0 0 1-4.476 4.479z" fill="#f6bab6" opacity="1" data-original="#5c8ffc" class=""></path><path d="M492.959 135.462h-.694l-7.618-15.83c-2.396-4.976-7.508-8.192-13.032-8.192h-40.287c-5.519 0-10.636 3.214-13.037 8.192l-7.614 15.83h-.693c-7.059 0-12.803 5.744-12.803 12.803v23.869c0 7.059 5.744 12.8 12.803 12.8h.323l10.509 93.128a17.869 17.869 0 0 0 17.771 15.885h7.193v122.49c0 18.14-14.759 32.898-32.898 32.898H100.715c-18.14 0-32.898-14.759-32.898-32.898v-39.201h291.01c13.941 0 25.285-11.344 25.285-25.287V78.159c0-13.943-11.344-25.287-25.285-25.287H31.533c-13.946 0-25.289 11.344-25.289 25.287v273.788c0 13.943 11.344 25.287 25.289 25.287h26.49v39.201c0 23.541 19.154 42.693 42.693 42.693h312.167c23.539 0 42.693-19.151 42.693-42.693v-122.49h7.542a17.872 17.872 0 0 0 17.771-15.88l10.505-93.133h1.566c7.059 0 12.798-5.741 12.798-12.8v-23.869c-.001-7.058-5.74-12.801-12.799-12.801zM31.533 367.44c-8.546 0-15.495-6.949-15.495-15.493V78.159c0-8.544 6.949-15.493 15.495-15.493h327.294c8.541 0 15.49 6.949 15.49 15.493v273.788c0 8.544-6.949 15.493-15.49 15.493zm395.582-243.559a4.71 4.71 0 0 1 4.213-2.647h40.287a4.686 4.686 0 0 1 4.204 2.642v.002l5.576 11.583h-59.847zm44.036 153.085a8.082 8.082 0 0 1-8.034 7.186h-24.529a8.076 8.076 0 0 1-8.034-7.186l-10.387-92.03h61.368zm24.811-104.833a3.01 3.01 0 0 1-3.003 3.006h-82.975a3.01 3.01 0 0 1-3.008-3.006v-23.869a3.01 3.01 0 0 1 3.008-3.008h82.975a3.01 3.01 0 0 1 3.003 3.008zM483.409 79.658a4.895 4.895 0 0 0 0-6.925c-17.622-17.627-46.246-17.631-63.874-.002-1.913 1.913-1.913 5.012 0 6.925s5.012 1.913 6.925 0c13.789-13.794 36.216-13.8 50.024.002a4.895 4.895 0 0 0 6.925 0z" fill="#f6bab6" opacity="1" data-original="#5c8ffc" class=""></path><path d="M438.234 91.43c-1.913 1.911-1.913 5.012 0 6.925s5.012 1.913 6.925 0c3.386-3.376 9.249-3.381 12.626 0a4.895 4.895 0 0 0 6.925 0 4.895 4.895 0 0 0 0-6.925c-7.079-7.078-19.398-7.088-26.476 0zM284.011 230.321a4.898 4.898 0 0 0 2.047-6.461l-37.815-76.743a4.899 4.899 0 0 0-6.093-2.429c-33.84 12.511-63.864 12.549-91.775.12a4.896 4.896 0 0 0-6.346 2.224l-39.684 76.743a4.907 4.907 0 0 0 1.506 6.236c55.973 39.962 117.553 33.424 178.16.31zm-133.358-74.768c27.652 11.035 58.13 10.971 90.727-.196l33.797 68.587c-60.832 32.006-113.31 32.183-160.158.512z" fill="#f6bab6" opacity="1" data-original="#5c8ffc" class=""></path></g></g></svg>